<mxfile host="app.diagrams.net" agent="Mozilla/5.0 (Macintosh; Intel Mac OS X 10_15_7) AppleWebKit/537.36 (KHTML, like Gecko) Chrome/126.0.0.0 Safari/537.36" version="24.7.4">
  <diagram name="Page-1" id="n1wSPaUNcrjFMdvdqEhq">
    <mxGraphModel dx="954" dy="640" grid="1" gridSize="10" guides="1" tooltips="1" connect="1" arrows="1" fold="1" page="1" pageScale="1" pageWidth="827" pageHeight="1169" math="0" shadow="0">
      <root>
        <mxCell id="0" />
        <mxCell id="1" parent="0" />
        <mxCell id="1bm1C_m4qK5XEw7XJte3-2" value="VPC" style="sketch=0;outlineConnect=0;gradientColor=none;html=1;whiteSpace=wrap;fontSize=12;fontStyle=0;shape=mxgraph.aws4.group;grIcon=mxgraph.aws4.group_vpc;strokeColor=#B6BABF;fillColor=none;verticalAlign=top;align=left;spacingLeft=30;fontColor=#B6BABF;dashed=0;" parent="1" vertex="1">
          <mxGeometry x="30" y="150" width="510" height="400" as="geometry" />
        </mxCell>
        <mxCell id="1bm1C_m4qK5XEw7XJte3-3" value="" style="outlineConnect=0;dashed=0;verticalLabelPosition=bottom;verticalAlign=top;align=center;html=1;shape=mxgraph.aws3.virtual_private_cloud;fillColor=#F58534;gradientColor=none;" parent="1" vertex="1">
          <mxGeometry x="26.88" y="60" width="79.5" height="54" as="geometry" />
        </mxCell>
        <mxCell id="1bm1C_m4qK5XEw7XJte3-4" value="Subnet" style="sketch=0;outlineConnect=0;gradientColor=none;html=1;whiteSpace=wrap;fontSize=12;fontStyle=0;shape=mxgraph.aws4.group;grIcon=mxgraph.aws4.group_subnet;strokeColor=#879196;fillColor=none;verticalAlign=top;align=left;spacingLeft=30;fontColor=#879196;dashed=0;" parent="1" vertex="1">
          <mxGeometry x="60" y="210" width="360" height="290" as="geometry" />
        </mxCell>
        <mxCell id="1bm1C_m4qK5XEw7XJte3-6" value="" style="outlineConnect=0;dashed=0;verticalLabelPosition=bottom;verticalAlign=top;align=center;html=1;shape=mxgraph.aws3.internet_3;fillColor=#D2D3D3;gradientColor=none;" parent="1" vertex="1">
          <mxGeometry x="590" y="259.99" width="200" height="140" as="geometry" />
        </mxCell>
        <mxCell id="1bm1C_m4qK5XEw7XJte3-10" value="Internet&#xa;gateway" style="sketch=0;outlineConnect=0;fontColor=#232F3E;gradientColor=none;strokeColor=#232F3E;fillColor=#ffffff;dashed=0;verticalLabelPosition=bottom;verticalAlign=top;align=center;html=1;fontSize=12;fontStyle=0;aspect=fixed;shape=mxgraph.aws4.resourceIcon;resIcon=mxgraph.aws4.internet_gateway;" parent="1" vertex="1">
          <mxGeometry x="390" y="326.37" width="60" height="60" as="geometry" />
        </mxCell>
        <mxCell id="1bm1C_m4qK5XEw7XJte3-14" value="Ubuntu Instance" style="sketch=0;outlineConnect=0;fontColor=#232F3E;gradientColor=none;strokeColor=#232F3E;fillColor=#ffffff;dashed=0;verticalLabelPosition=bottom;verticalAlign=top;align=center;html=1;fontSize=12;fontStyle=0;aspect=fixed;shape=mxgraph.aws4.resourceIcon;resIcon=mxgraph.aws4.instance;" parent="1" vertex="1">
          <mxGeometry x="140" y="273.62" width="112.75" height="112.75" as="geometry" />
        </mxCell>
        <mxCell id="1bm1C_m4qK5XEw7XJte3-16" value="" style="rounded=1;arcSize=10;dashed=1;strokeColor=#ff0000;fillColor=none;gradientColor=none;dashPattern=8 4;strokeWidth=2;" parent="1" vertex="1">
          <mxGeometry x="108.63" y="260" width="175.5" height="160" as="geometry" />
        </mxCell>
        <mxCell id="1bm1C_m4qK5XEw7XJte3-17" value="" style="image;sketch=0;aspect=fixed;html=1;points=[];align=center;fontSize=12;image=img/lib/mscae/Network_Security_Groups_Classic.svg;" parent="1" vertex="1">
          <mxGeometry x="90" y="240" width="37" height="50" as="geometry" />
        </mxCell>
        <mxCell id="1bm1C_m4qK5XEw7XJte3-18" value="Security Group" style="text;strokeColor=none;align=center;fillColor=none;html=1;verticalAlign=middle;whiteSpace=wrap;rounded=0;" parent="1" vertex="1">
          <mxGeometry x="166.38" y="430" width="60" height="30" as="geometry" />
        </mxCell>
        <mxCell id="1bm1C_m4qK5XEw7XJte3-19" value="" style="outlineConnect=0;dashed=0;verticalLabelPosition=bottom;verticalAlign=top;align=center;html=1;shape=mxgraph.aws3.elastic_network_interface;fillColor=#F58536;gradientColor=none;rounded=0;fontFamily=Helvetica;fontSize=12;fontColor=default;" parent="1" vertex="1">
          <mxGeometry x="178.38" y="300" width="36" height="40" as="geometry" />
        </mxCell>
        <mxCell id="1bm1C_m4qK5XEw7XJte3-24" value="" style="shape=flexArrow;endArrow=classic;startArrow=classic;html=1;rounded=0;fillColor=#d5e8d4;strokeColor=#82b366;width=11.764705882352942;startSize=4.811764705882353;" parent="1" source="1bm1C_m4qK5XEw7XJte3-16" target="1bm1C_m4qK5XEw7XJte3-22" edge="1">
          <mxGeometry width="100" height="100" relative="1" as="geometry">
            <mxPoint x="292" y="300" as="sourcePoint" />
            <mxPoint x="395" y="269.42" as="targetPoint" />
          </mxGeometry>
        </mxCell>
        <mxCell id="1bm1C_m4qK5XEw7XJte3-25" value="" style="shape=flexArrow;endArrow=classic;startArrow=classic;html=1;rounded=0;fillColor=#d5e8d4;strokeColor=#82b366;" parent="1" source="1bm1C_m4qK5XEw7XJte3-10" target="1bm1C_m4qK5XEw7XJte3-22" edge="1">
          <mxGeometry width="100" height="100" relative="1" as="geometry">
            <mxPoint x="272" y="330" as="sourcePoint" />
            <mxPoint x="520" y="232" as="targetPoint" />
          </mxGeometry>
        </mxCell>
        <mxCell id="1bm1C_m4qK5XEw7XJte3-21" value="&lt;font style=&quot;font-size: 7px;&quot;&gt;Internet Interface&lt;/font&gt;" style="text;align=center;html=1;verticalAlign=middle;whiteSpace=wrap;rounded=0;fillColor=#fff2cc;strokeColor=#d6b656;" parent="1" vertex="1">
          <mxGeometry x="162.38" y="346.5" width="68" height="17" as="geometry" />
        </mxCell>
        <mxCell id="1bm1C_m4qK5XEw7XJte3-22" value="Route table" style="sketch=0;outlineConnect=0;fontColor=#232F3E;gradientColor=none;strokeColor=#232F3E;fillColor=#ffffff;dashed=0;verticalLabelPosition=bottom;verticalAlign=top;align=center;html=1;fontSize=12;fontStyle=0;aspect=fixed;shape=mxgraph.aws4.resourceIcon;resIcon=mxgraph.aws4.route_table;" parent="1" vertex="1">
          <mxGeometry x="510" y="130" width="60" height="60" as="geometry" />
        </mxCell>
        <mxCell id="1bm1C_m4qK5XEw7XJte3-27" value="Firstly Create my first virtual cloud - next, I need to create an internet gateway in order for my VPC to be able to access&amp;nbsp;&lt;div&gt;&lt;span style=&quot;background-color: initial;&quot;&gt;internet and vice-versa.&amp;nbsp;&lt;/span&gt;&lt;br&gt;&lt;/div&gt;&lt;div&gt;&lt;br&gt;&lt;div&gt;Next, I would need a custom route table in order to provide a path of the data flow. This will create a path for the data flows for my instance and VPC.&lt;/div&gt;&lt;div&gt;&lt;br&gt;&lt;/div&gt;&lt;div&gt;I will next specify a subnet in the VPC for my instance to reside in. This subnet has to be associated with the route table (path) in order for my subnet to access internet. While route table is to create a path - it technically only allow outbound traffic and inbound traffic are usually on instance level which will be under security group.&lt;/div&gt;&lt;div&gt;&lt;br&gt;&lt;/div&gt;&lt;div&gt;Here I would specify the security group. Now that my subnet has the path to access internet, we need to specify the ports that is allowed to make the connection to my instance. There are a few ports I require. In order to SSH in the instance, port 22. HTTP and HTTPs is also required for internet access - 443 &amp;amp; 80. This security group is also where we will specify the egress and ingress of data for my instance.&lt;/div&gt;&lt;div&gt;&lt;br&gt;&lt;/div&gt;&lt;div&gt;After I have specify the ports, I would need an entry point in my server - which is also known as the network interface.This network interface is a virtual hardware through the use of AWS service. Therefore it has to be associated with the subnet IP address.&lt;/div&gt;&lt;div&gt;&lt;br&gt;&lt;/div&gt;&lt;div&gt;Now that we have the internet interface, we need to assign a public IP address (my instance) for the public to access it. This will be done through elastic IP and associate with the network interface that was created.&lt;/div&gt;&lt;div&gt;&lt;br&gt;&lt;/div&gt;&lt;div&gt;In order to create a web server, I would first need an instance. Here I would create a Ubuntu server, t2 micro to host my website. Here I would need to specify the network interface which i created.&amp;nbsp;&lt;/div&gt;&lt;div&gt;&lt;br&gt;&lt;/div&gt;&lt;div&gt;From here, my OS will communicate with the route table that is on my VPC so that it has a path for my data to flow&lt;span style=&quot;background-color: initial;&quot;&gt;.&lt;/span&gt;&lt;/div&gt;&lt;div&gt;&lt;span style=&quot;background-color: initial;&quot;&gt;&lt;br&gt;&lt;/span&gt;&lt;/div&gt;&lt;div&gt;&lt;span style=&quot;background-color: initial;&quot;&gt;Green Represent the map - it tells the the instance and the internet gateway the map.&lt;/span&gt;&lt;/div&gt;&lt;/div&gt;&lt;div&gt;&lt;span style=&quot;background-color: initial;&quot;&gt;Black and white represent the flow of data, now that the instance and the internet gateway understand the route - the flow of data will be from the instance to the internet gateway, finally the internet. Ofcourse while the data are able to flow, security group will stop the request if its not from 22, 80 and 443 for ingress.&lt;/span&gt;&lt;/div&gt;" style="text;html=1;align=center;verticalAlign=middle;whiteSpace=wrap;rounded=0;fontFamily=Helvetica;fontSize=12;fontColor=default;" parent="1" vertex="1">
          <mxGeometry x="100" y="660" width="663.62" height="290" as="geometry" />
        </mxCell>
        <mxCell id="1bm1C_m4qK5XEw7XJte3-28" value="Internet" style="text;strokeColor=none;align=center;fillColor=none;html=1;verticalAlign=middle;whiteSpace=wrap;rounded=0;" parent="1" vertex="1">
          <mxGeometry x="650" y="410" width="60" height="30" as="geometry" />
        </mxCell>
        <mxCell id="1bm1C_m4qK5XEw7XJte3-33" value="" style="shape=flexArrow;endArrow=classic;startArrow=classic;html=1;rounded=0;fontFamily=Helvetica;fontSize=12;fontColor=default;" parent="1" source="1bm1C_m4qK5XEw7XJte3-19" target="1bm1C_m4qK5XEw7XJte3-10" edge="1">
          <mxGeometry width="100" height="100" relative="1" as="geometry">
            <mxPoint x="350" y="540" as="sourcePoint" />
            <mxPoint x="450" y="440" as="targetPoint" />
          </mxGeometry>
        </mxCell>
        <mxCell id="1bm1C_m4qK5XEw7XJte3-34" value="" style="shape=flexArrow;endArrow=classic;startArrow=classic;html=1;rounded=0;fontFamily=Helvetica;fontSize=12;fontColor=default;entryX=0;entryY=0.7;entryDx=0;entryDy=0;entryPerimeter=0;" parent="1" source="1bm1C_m4qK5XEw7XJte3-10" target="1bm1C_m4qK5XEw7XJte3-6" edge="1">
          <mxGeometry width="100" height="100" relative="1" as="geometry">
            <mxPoint x="440" y="363.5" as="sourcePoint" />
            <mxPoint x="616" y="391.5" as="targetPoint" />
          </mxGeometry>
        </mxCell>
      </root>
    </mxGraphModel>
  </diagram>
</mxfile>
